<svg width="30" height="30" viewBox="0 0 20 20" fill="none" xmlns="http://www.w3.org/2000/svg">
<path d="M6.51056 9.83749L7.07393 10.1082C7.1145 10.0237 7.13556 9.93116 7.13556 9.83749H6.51056ZM5.6875 11.5508L5.12413 11.2802C5.07466 11.3832 5.05436 11.4977 5.06545 11.6115L5.6875 11.5508ZM6.87375 13.1083L7.14041 12.5431C7.12372 12.5352 7.1067 12.5281 7.08938 12.5217L6.87375 13.1083ZM9.80366 13.775L9.80007 14.4H9.80716L9.80366 13.775ZM12.7335 13.1083L12.4756 12.539L12.4668 12.5431L12.7335 13.1083ZM13.6053 12.43L14.0927 12.8212C14.1172 12.7907 14.1388 12.758 14.1572 12.7234L13.6053 12.43ZM13.5078 10.6942L12.9359 10.9462C12.9517 10.9819 12.9707 11.0162 12.9928 11.0483L13.5078 10.6942ZM13.0374 8.88666L13.6596 8.82749C13.6589 8.82074 13.6582 8.81399 13.6573 8.80724L13.0374 8.88666ZM9.80366 15.8333L9.79499 16.4582C9.80074 16.4583 9.80649 16.4583 9.81224 16.4582L9.80366 15.8333ZM9.80282 4.91416C8.46016 4.91416 7.4451 5.49628 6.78971 6.44286C6.15436 7.36049 5.88556 8.57474 5.88556 9.83749H7.13556C7.13556 8.72774 7.3754 7.79282 7.81741 7.15441C8.2394 6.54495 8.87049 6.16416 9.80282 6.16416V4.91416ZM5.9472 9.56682L5.12413 11.2802L6.25086 11.8215L7.07393 10.1082L5.9472 9.56682ZM5.06545 11.6115C5.15731 12.5539 5.77121 13.3689 6.65811 13.6949L7.08938 12.5217C6.66565 12.3659 6.35619 11.9687 6.30955 11.4902L5.06545 11.6115ZM6.60709 13.6736C7.60822 14.1459 8.69691 14.3937 9.80007 14.4L9.80716 13.15C8.88682 13.1448 7.97769 12.9381 7.14041 12.5431L6.60709 13.6736ZM9.80716 14.4C10.9104 14.3937 11.999 14.1459 13.0002 13.6736L12.4668 12.5431C11.6296 12.9381 10.7204 13.1448 9.80007 13.15L9.80716 14.4ZM12.9914 13.6777C13.4201 13.4834 13.797 13.1897 14.0927 12.8212L13.1179 12.0387C12.9437 12.2559 12.7234 12.4267 12.4756 12.539L12.9914 13.6777ZM14.1572 12.7234C14.5589 11.9678 14.5077 11.045 14.0227 10.34L12.9928 11.0483C13.2127 11.3679 13.237 11.7913 13.0535 12.1366L14.1572 12.7234ZM14.0797 10.4422C13.8547 9.93149 13.7127 9.38599 13.6596 8.82749L12.4152 8.94582C12.4809 9.63699 12.6567 10.3127 12.9359 10.9462L14.0797 10.4422ZM13.6573 8.80724C13.5242 7.76806 13.1718 6.79831 12.5297 6.07842C11.8725 5.34166 10.9524 4.91416 9.80282 4.91416V6.16416C10.6137 6.16416 11.1883 6.45248 11.5969 6.91052C12.0205 7.38542 12.3052 8.08942 12.4174 8.96607L13.6573 8.80724ZM10.4278 5.53916V4.16666H9.17782V5.53916H10.4278ZM7.37828 15.6537C8.0846 16.1651 8.92707 16.4462 9.79499 16.4582L9.81224 15.2084C9.20407 15.2 8.61099 15.003 8.11122 14.6412L7.37828 15.6537ZM9.81224 16.4582C10.6802 16.4462 11.5227 16.1651 12.229 15.6537L11.496 14.6412C10.9962 15.003 10.4032 15.2 9.79499 15.2084L9.81224 16.4582Z" fill="#3595DB"/>
</svg>
