<svg width="30" height="30" viewBox="0 0 20 20" fill="none" xmlns="http://www.w3.org/2000/svg">
<g clip-path="url(#clip0_16_245)">
<path d="M10.7283 1.64622C10.7283 1.25279 10.3934 0.917969 10 0.917969C9.60662 0.917969 9.27179 1.25279 9.27179 1.64622V3.404C9.27179 3.79743 9.60662 4.13225 10 4.13225C10.3934 4.13225 10.7283 3.79743 10.7283 3.404V1.64622ZM14.1351 4.83536C13.8588 5.11997 13.8588 5.58872 14.1351 5.86497C14.4197 6.14954 14.8801 6.15793 15.173 5.86497L16.4202 4.61775C16.7049 4.33315 16.7049 3.8644 16.4202 3.57979C16.144 3.30358 15.6753 3.30358 15.3907 3.57979L14.1351 4.83536ZM4.82704 5.86497C5.10326 6.14954 5.57201 6.14954 5.85662 5.86497C6.13287 5.59711 6.13287 5.11161 5.86501 4.83536L4.61779 3.57979C4.34994 3.31193 3.87279 3.30358 3.58819 3.57979C3.31197 3.856 3.31197 4.33315 3.57983 4.6094L4.82704 5.86497ZM10 5.731C7.66465 5.731 5.73104 7.66461 5.73104 10C5.73104 12.3354 7.66465 14.2774 10 14.2774C12.327 14.2774 14.2607 12.3354 14.2607 10C14.2607 7.66461 12.327 5.731 10 5.731ZM10 7.01172C11.6323 7.01172 12.9883 8.36775 12.9883 10C12.9883 11.6323 11.6323 12.9966 10 12.9966C8.3594 12.9966 7.00337 11.6323 7.00337 10C7.00337 8.36775 8.3594 7.01172 10 7.01172ZM18.3287 10.7282C18.7221 10.7282 19.0569 10.3934 19.0569 10C19.0569 9.60657 18.7221 9.27175 18.3287 9.27175H16.5793C16.1859 9.27175 15.851 9.60657 15.851 10C15.851 10.3934 16.1859 10.7282 16.5793 10.7282H18.3287ZM1.67137 9.27175C1.27794 9.27175 0.943115 9.60657 0.943115 10C0.943115 10.3934 1.27794 10.7282 1.67137 10.7282H3.42079C3.81422 10.7282 4.14904 10.3934 4.14904 10C4.14904 9.60657 3.81422 9.27175 3.42079 9.27175H1.67137ZM15.1647 14.1434C14.8801 13.8672 14.4197 13.8672 14.1351 14.1434C13.8588 14.4196 13.8588 14.8884 14.1351 15.173L15.3907 16.4286C15.6753 16.7048 16.144 16.6964 16.4202 16.4202C16.7049 16.144 16.7049 15.6752 16.4202 15.3906L15.1647 14.1434ZM3.57983 15.3823C3.29522 15.6585 3.29522 16.1356 3.57147 16.4118C3.84769 16.6881 4.32479 16.6964 4.6094 16.4202L5.85662 15.173C6.13287 14.8968 6.13287 14.428 5.86501 14.1434C5.58876 13.8672 5.11165 13.8672 4.82704 14.1434L3.57983 15.3823ZM10.7283 16.596C10.7283 16.2026 10.3934 15.8678 10 15.8678C9.60662 15.8678 9.27179 16.2026 9.27179 16.596V18.3538C9.27179 18.7472 9.60662 19.082 10 19.082C10.3934 19.082 10.7283 18.7472 10.7283 18.3538V16.596Z" fill="#F57639"/>
</g>
<defs>
<clipPath id="clip0_16_245">
<rect width="20" height="20" fill="white"/>
</clipPath>
</defs>
</svg>
